<svg width="512" height="512" viewBox="0 0 512 512" fill="none" xmlns="http://www.w3.org/2000/svg">
<g clip-path="url(#clip0_528_259)">
<path opacity="0.965" fill-rule="evenodd" clip-rule="evenodd" d="M302.5 -0.5C316.5 -0.5 330.5 -0.5 344.5 -0.5C372.417 2.44269 398.917 10.4427 424 23.5C425.289 26.3508 425.789 29.3508 425.5 32.5C422.59 35.9509 418.923 37.1176 414.5 36C361.761 10.9539 307.761 7.95388 252.5 27C216.159 40.689 187.659 63.8557 167 96.5C147.204 132.413 145.371 169.079 161.5 206.5C170.012 225.978 182.345 242.812 198.5 257C238.711 289.291 284.711 303.957 336.5 301C345.841 299.665 355.174 298.665 364.5 298C391.238 316.474 420.738 328.307 453 333.5C454.711 333.561 456.044 332.894 457 331.5C457.927 328.137 457.427 325.137 455.5 322.5C448.679 306.188 441.846 289.855 435 273.5C434.333 271.833 434.333 270.167 435 268.5C436.376 267.295 437.542 265.962 438.5 264.5C462.786 247.244 479.786 224.578 489.5 196.5C503.413 152.892 495.913 113.226 467 77.5C458.59 67.0875 448.923 58.0875 438 50.5C435.237 47.1767 434.737 43.51 436.5 39.5C441.29 36.6833 445.957 36.85 450.5 40C484.294 65.7554 504.627 99.5887 511.5 141.5C511.5 152.5 511.5 163.5 511.5 174.5C507.008 202.473 495.842 227.473 478 249.5C470.1 258.733 461.6 267.233 452.5 275C459.753 291.338 466.587 307.838 473 324.5C473.45 342.05 464.95 349.884 447.5 348C415.66 342.669 386.327 331.169 359.5 313.5C349.293 315.621 338.96 316.621 328.5 316.5C337.46 374.476 317.793 419.976 269.5 453C266.833 453.667 264.167 453.667 261.5 453C260.619 452.292 259.953 451.458 259.5 450.5C258.013 447.087 258.18 443.753 260 440.5C281.148 426.826 296.648 408.493 306.5 385.5C310.808 376.732 313.642 367.399 315 357.5C315.667 347.5 315.667 337.5 315 327.5C314.802 325.618 314.302 323.952 313.5 322.5C313.326 320.139 312.993 317.806 312.5 315.5C251.12 312.894 201.286 287.894 163 240.5C158.457 233.917 154.29 227.083 150.5 220C147.304 219.195 144.304 219.362 141.5 220.5C122.4 222.815 104.233 228.148 87.0004 236.5C83.977 236.073 81.477 234.739 79.5004 232.5C78.0369 229.337 78.3703 226.337 80.5004 223.5C100.25 213.143 121.25 206.643 143.5 204C125.45 144.2 139.116 92.8662 184.5 50C218.498 20.8377 257.831 4.00441 302.5 -0.5Z" fill="#020100"/>
<path fill-rule="evenodd" clip-rule="evenodd" d="M425.5 32.4999C428.894 35.2204 432.561 37.5537 436.5 39.4999C434.737 43.5099 435.237 47.1766 438 50.4999C448.923 58.0874 458.59 67.0874 467 77.4999C495.913 113.226 503.413 152.892 489.5 196.5C476.588 220.26 459.422 240.593 438 257.5C437.297 259.929 437.463 262.262 438.5 264.5C437.542 265.962 436.376 267.295 435 268.5C434.333 270.167 434.333 271.833 435 273.5C441.846 289.855 448.679 306.188 455.5 322.5C421.933 318.542 391.266 307.042 363.5 288C312.473 296.46 264.473 288.127 219.5 263C195.357 249.023 176.024 230.19 161.5 206.5C145.371 169.079 147.204 132.413 167 96.4999C187.659 63.8556 216.159 40.6889 252.5 26.9999C307.761 7.95382 361.761 10.9538 414.5 35.9999C418.923 37.1175 422.59 35.9508 425.5 32.4999Z" fill="#5672CD"/>
<path fill-rule="evenodd" clip-rule="evenodd" d="M234.5 111.5C260.248 109.279 278.082 119.946 288 143.5C292.308 158.51 290.142 172.51 281.5 185.5C284.15 188.651 286.984 191.651 290 194.5C291.266 202.797 287.766 205.964 279.5 204C276.354 201.688 273.354 199.188 270.5 196.5C244.924 211.351 222.757 207.351 204 184.5C191.255 161.172 194.422 140.339 213.5 122C220.06 117.387 227.06 113.887 234.5 111.5Z" fill="#050401"/>
<path fill-rule="evenodd" clip-rule="evenodd" d="M236.5 126.5C256.344 124.836 269.177 133.502 275 152.5C276.344 160.452 274.844 167.786 270.5 174.5C267.247 170.871 263.58 167.704 259.5 165C252.357 164.821 249.524 168.321 251 175.5C253.646 178.98 256.479 182.314 259.5 185.5C242.194 194.455 227.694 191.122 216 175.5C206.361 152.125 213.195 135.791 236.5 126.5Z" fill="#5672CD"/>
<path fill-rule="evenodd" clip-rule="evenodd" d="M323.5 136.5C364.501 136.333 405.501 136.5 446.5 137C452.232 142.608 451.565 147.274 444.5 151C404.5 151.667 364.5 151.667 324.5 151C319.776 148.565 318.276 144.731 320 139.5C321.145 138.364 322.312 137.364 323.5 136.5Z" fill="#090703"/>
<path fill-rule="evenodd" clip-rule="evenodd" d="M324.5 177.5C364.501 177.333 404.501 177.5 444.5 178C451.616 181.598 452.282 186.264 446.5 192C405.5 192.667 364.5 192.667 323.5 192C319.788 189.487 318.622 185.987 320 181.5C321.397 179.93 322.897 178.596 324.5 177.5Z" fill="#070502"/>
<path fill-rule="evenodd" clip-rule="evenodd" d="M489.5 196.5C479.786 224.578 462.786 247.244 438.5 264.5C437.463 262.262 437.297 259.929 438 257.5C459.422 240.593 476.588 220.26 489.5 196.5Z" fill="#3A5CCC"/>
<path fill-rule="evenodd" clip-rule="evenodd" d="M161.5 206.5C176.024 230.19 195.357 249.023 219.5 263C264.473 288.127 312.473 296.46 363.5 288C391.266 307.042 421.933 318.542 455.5 322.5C457.427 325.137 457.927 328.137 457 331.5C456.044 332.894 454.711 333.561 453 333.5C420.738 328.307 391.238 316.474 364.5 298C355.174 298.665 345.841 299.665 336.5 301C284.711 303.957 238.711 289.291 198.5 257C182.345 242.812 170.012 225.978 161.5 206.5Z" fill="#3A5CCC"/>
<path fill-rule="evenodd" clip-rule="evenodd" d="M141.5 220.5C162.826 261.323 194.826 290.49 237.5 308C260.373 316.801 284.04 322.301 308.5 324.5C310.64 324.444 312.306 323.777 313.5 322.5C314.302 323.952 314.802 325.618 315 327.5C315.667 337.5 315.667 347.5 315 357.5C313.642 367.399 310.808 376.732 306.5 385.5C282.319 421.12 248.985 443.62 206.5 453C181.232 458.15 155.899 458.816 130.5 455C106.472 470.957 80.139 481.124 51.5003 485.5C56.9879 472.521 62.4879 459.521 68.0003 446.5C69.3379 441.96 68.1712 438.293 64.5003 435.5C66.9247 433.08 67.0914 430.413 65.0003 427.5C48.5544 415.557 34.7211 401.223 23.5003 384.5C7.15105 343.26 13.3177 305.594 42.0003 271.5C49.7334 263.097 58.0667 255.43 67.0003 248.5C68.724 245.264 68.8907 241.93 67.5003 238.5C71.5003 236.5 75.5003 234.5 79.5003 232.5C81.4769 234.739 83.9769 236.073 87.0003 236.5C104.233 228.148 122.4 222.815 141.5 220.5Z" fill="#EBEBEF"/>
<path fill-rule="evenodd" clip-rule="evenodd" d="M313.5 322.5C312.306 323.777 310.64 324.444 308.5 324.5C284.04 322.301 260.373 316.801 237.5 308C194.826 290.49 162.826 261.323 141.5 220.5C144.304 219.362 147.304 219.195 150.5 220C154.29 227.083 158.457 233.917 163 240.5C201.286 287.894 251.12 312.894 312.5 315.5C312.993 317.806 313.326 320.139 313.5 322.5Z" fill="#C6C6C6"/>
<path opacity="0.959" fill-rule="evenodd" clip-rule="evenodd" d="M67.5 238.5C68.8904 241.93 68.7237 245.264 67 248.5C58.0664 255.43 49.7331 263.097 42 271.5C13.3174 305.594 7.15072 343.26 23.5 384.5C32.1659 405.486 45.8325 422.486 64.5 435.5C68.1709 438.293 69.3376 441.96 68 446.5C62.4876 459.521 56.9876 472.521 51.5 485.5C49.2248 488.41 48.3915 491.744 49 495.5C77.7533 492.801 103.92 482.968 127.5 466C154.98 470.007 182.313 469.007 209.5 463C218.37 460.599 227.036 457.599 235.5 454C240.357 452.593 244.357 453.76 247.5 457.5C248.029 461.192 247.029 464.358 244.5 467C208.586 482.435 171.253 487.435 132.5 482C109.669 496.587 85.0022 506.421 58.5 511.5C53.8333 511.5 49.1667 511.5 44.5 511.5C33.6833 504.885 30.5166 495.552 35 483.5C40.504 470.983 46.004 458.483 51.5 446C23.1396 423.804 5.80625 394.971 -0.5 359.5C-0.5 348.833 -0.5 338.167 -0.5 327.5C6.34513 290.318 25.0118 260.484 55.5 238C59.6126 235.946 63.6126 236.113 67.5 238.5Z" fill="#020000"/>
<path fill-rule="evenodd" clip-rule="evenodd" d="M87.5003 308.5C92.3476 307.84 96.1809 309.507 99.0003 313.5C108.333 338.167 117.667 362.833 127 387.5C128.833 396.333 125.333 399.833 116.5 398C115.667 397.167 114.833 396.333 114 395.5C112.265 390.794 110.431 386.127 108.5 381.5C96.5003 380.167 84.5003 380.167 72.5003 381.5C70.7467 387.506 68.0801 393.006 64.5003 398C60.0133 399.378 56.5133 398.212 54.0003 394.5C53.3894 390.318 54.0561 386.318 56.0003 382.5C65.0003 359.167 74.0003 335.833 83.0003 312.5C84.3971 310.93 85.8971 309.596 87.5003 308.5Z" fill="#040102"/>
<path fill-rule="evenodd" clip-rule="evenodd" d="M157.5 325.5C194.168 325.333 230.835 325.5 267.5 326C273.835 328.665 275.002 332.832 271 338.5C269.933 339.191 268.766 339.691 267.5 340C230.833 340.667 194.167 340.667 157.5 340C150.902 335.129 150.902 330.295 157.5 325.5Z" fill="#010000"/>
<path fill-rule="evenodd" clip-rule="evenodd" d="M90.5 334.5C94.4461 344.411 98.4461 354.411 102.5 364.5C94.5208 365.665 86.5208 365.832 78.5 365C82.6013 354.861 86.6013 344.694 90.5 334.5Z" fill="#EBEBEF"/>
<path fill-rule="evenodd" clip-rule="evenodd" d="M156.5 367.5C194.168 367.333 231.835 367.5 269.5 368C275.133 373.487 274.466 378.154 267.5 382C230.833 382.667 194.167 382.667 157.5 382C151.413 377.445 151.08 372.612 156.5 367.5Z" fill="#090304"/>
<path fill-rule="evenodd" clip-rule="evenodd" d="M23.5 384.5C34.7208 401.223 48.5541 415.557 65 427.5C67.0911 430.413 66.9244 433.08 64.5 435.5C45.8325 422.486 32.1659 405.486 23.5 384.5Z" fill="#C6C6C6"/>
<path fill-rule="evenodd" clip-rule="evenodd" d="M306.5 385.5C296.648 408.493 281.148 426.826 260 440.5C258.18 443.753 258.013 447.087 259.5 450.5C255.136 452.344 251.136 454.677 247.5 457.5C244.357 453.76 240.357 452.593 235.5 454C227.036 457.599 218.37 460.599 209.5 463C182.313 469.007 154.98 470.007 127.5 466C103.92 482.968 77.7535 492.801 49.0002 495.5C48.3917 491.744 49.225 488.41 51.5002 485.5C80.1389 481.124 106.472 470.957 130.5 455C155.899 458.816 181.232 458.15 206.5 453C248.985 443.62 282.319 421.12 306.5 385.5Z" fill="#C6C6C6"/>
</g>
<defs>
<clipPath id="clip0_528_259">
<rect width="512" height="512" fill="white"/>
</clipPath>
</defs>
</svg>
